<svg id="react-gatsby" xmlns="http://www.w3.org/2000/svg" viewBox="0 0 500 300"><defs><style>.cls-1{fill:#1c1c1c;}.cls-2{fill:#00d8ff;}.cls-3{fill:#639;}.cls-4{fill:#fff;}</style></defs><rect class="cls-1" width="500" height="300"/><circle class="cls-2" cx="126.5" cy="165.22" r="14.33"/><path class="cls-2" d="M126.5,198.05a211.69,211.69,0,0,1-27.35-1.67,123,123,0,0,1-23.52-5.21c-8.55-2.93-15.79-6.81-20.95-11.22-5.49-4.69-8.39-9.8-8.39-14.74s2.75-9.7,8-14.16c4.83-4.13,11.7-7.82,19.87-10.66a132.63,132.63,0,0,1,24-5.69,193.52,193.52,0,0,1,28.35-2c19.11,0,37.47,2.69,51.68,7.58,8.31,2.85,15.32,6.55,20.27,10.68,5.39,4.51,8.25,9.44,8.25,14.28,0,5-3,10.16-8.72,14.86-5.3,4.36-12.79,8.22-21.63,11.15a129.69,129.69,0,0,1-23.1,5.11A197.36,197.36,0,0,1,126.5,198.05Zm0-58.53c-18.46,0-36.72,2.68-50.12,7.34-7.37,2.57-13.48,5.82-17.67,9.4-3.58,3.08-5.56,6.25-5.56,9s2.13,6.22,6,9.53c4.51,3.86,11,7.3,18.71,9.94,12.47,4.26,29.29,6.51,48.66,6.51,18.16,0,35.11-2.3,47.7-6.47,8.05-2.67,14.78-6.1,19.43-9.94,4-3.3,6.22-6.7,6.22-9.57,0-2.7-2.06-5.9-5.79-9-4.32-3.6-10.58-6.89-18.11-9.47C162.45,142.08,144.89,139.52,126.5,139.52Z"/><path class="cls-2" d="M94,236.66a15.09,15.09,0,0,1-7.65-1.88c-4.17-2.4-7-7.24-8.29-14-1.17-6.25-.93-14,.68-22.53a133.79,133.79,0,0,1,7.08-23.68A193.35,193.35,0,0,1,98.19,149h0c9.56-16.57,21-31.12,32.4-41,6.62-5.76,13.33-10,19.38-12.22,6.6-2.42,12.3-2.42,16.49,0,4.35,2.51,7.3,7.69,8.52,15,1.13,6.78.74,15.19-1.14,24.32a128.92,128.92,0,0,1-7.12,22.56,202.39,202.39,0,0,1-11.87,24,212.68,212.68,0,0,1-15.11,22.86,123.57,123.57,0,0,1-16.26,17.78c-6.8,5.94-13.78,10.28-20.19,12.55A28.75,28.75,0,0,1,94,236.66Zm65.15-135.8a20,20,0,0,0-6.79,1.4c-5.29,1.94-11.25,5.73-17.26,11-10.78,9.37-21.77,23.31-31,39.23h0c-9.23,16-16,33.16-18.67,47.09-1.46,7.67-1.69,14.59-.68,20,.86,4.65,2.63,8,5,9.3s6.46,1.26,11.26-.43c5.6-2,11.8-5.86,18-11.24,9.91-8.67,20.26-22.12,30-38.9,9.07-15.73,15.54-31.55,18.22-44.56,1.71-8.31,2.09-15.86,1.09-21.81-.85-5.12-2.69-8.73-5.18-10.16A7.88,7.88,0,0,0,159.12,100.86Z"/><path class="cls-2" d="M159.07,236.7a26.7,26.7,0,0,1-8.75-1.65c-6-2.11-12.62-6.2-19.18-11.85a133.33,133.33,0,0,1-17-17.95,193.16,193.16,0,0,1-16-23.5h0c-9.58-16.56-16.45-33.8-19.34-48.54-1.69-8.62-2-16.54-.9-22.91,1.2-6.93,4-11.87,8.23-14.29,4.35-2.52,10.31-2.48,17.22.1,6.44,2.4,13.53,7,20.5,13.13a129.23,129.23,0,0,1,16,17.44A200.33,200.33,0,0,1,154.8,149a212.08,212.08,0,0,1,12.26,24.51,122.21,122.21,0,0,1,7.28,23c1.76,8.86,2,17.07.78,23.76-1.32,7.1-4.27,12.16-8.55,14.63A14.67,14.67,0,0,1,159.07,236.7Zm-54.93-58.4c9.25,16,20.72,30.45,31.46,39.71,5.92,5.08,11.79,8.74,17,10.58,4.46,1.56,8.2,1.68,10.53.33s4.33-5,5.25-10c1.08-5.83.82-13.16-.77-21.17-2.55-12.91-9-28.59-18.74-45.37-9.1-15.72-19.58-29.23-29.5-38-6.35-5.63-12.69-9.73-18.35-11.83-4.86-1.82-8.91-2-11.39-.59s-4.08,4.74-4.9,9.52c-1,5.55-.66,12.61.87,20.42,2.76,14,9.35,30.49,18.55,46.4Z"/><path class="cls-3" d="M381.1,95.82a69.78,69.78,0,1,0,69.78,69.78A70,70,0,0,0,381.1,95.82ZM342.22,204.48a54.11,54.11,0,0,1-15.94-37.88l54.33,53.82C366.65,219.92,352.69,214.94,342.22,204.48Zm50.85,14.45-65.3-65.29a54.79,54.79,0,0,1,97.69-20.44L418,139.68a46,46,0,0,0-36.88-18.94,45.34,45.34,0,0,0-42.36,29.9L396.05,208A45.2,45.2,0,0,0,425,175.56H401v-10h34.88A55,55,0,0,1,393.07,218.93Z"/><path class="cls-4" d="M278.32,195.89c-2.32-2.32-4.52-4.63-7.68-8a33.69,33.69,0,0,1-24,9.38c-16,0-25.23-10.72-25.23-23,0-11.22,6.71-18.9,16.09-24v-.37c-4.27-5.36-6.83-11.34-6.83-17.19,0-10,7.19-20.23,20.84-20.23,10.25,0,18.17,6.82,18.17,17.43,0,8.65-5,15.49-18,21.94v.37c6.95,8,14.75,17.07,20,22.92,3.78-5.74,6.34-13.65,7.93-24h9.75c-2.19,12.93-5.73,23.17-11.83,30.36,4.39,4.63,8.66,9.26,13.54,14.5ZM265.4,181.75c-4.87-5.36-14-15.36-23.16-25.84-4.39,2.8-10.6,8.05-10.6,16.7,0,9.39,7,16.58,16.81,16.58A23,23,0,0,0,265.4,181.75Zm-25-50.1c0,5.85,2.69,10.36,6.22,14.75,8.29-4.75,13.65-9.15,13.65-16.09,0-5-2.8-10.6-9.51-10.6S240.41,125.31,240.41,131.65Z"/></svg>