<svg id="gba" xmlns="http://www.w3.org/2000/svg" viewBox="0 0 500 300"><defs><style>.cls-1{fill:#1f00cc;}.cls-2{fill:#fff;}</style></defs><rect class="cls-1" width="500" height="300"/><path class="cls-1" d="M190.1,137.9c5.1,0,8.2,2.2,11.2,5.8a23.27,23.27,0,0,1,3.5-2.7,18.6,18.6,0,0,1,10.1-3h47l-3.1,4.9,59-.1,5.4,9.3,4.8-9.2h39.2l9.7,7.6v-7.6h73.8v35.3H382.6l-9.9-7.7v7.7H317.5l-3.7-6.1c-3,3.4-8.4,6.1-17.3,6.1h-49c-1.6,1.6-3.3,1.8-5.3,1.7l-.5,3.2H222.8l.4-2.7c-.2.1-.4.3-.6.4a18.72,18.72,0,0,1-14.1,2.5,18,18,0,0,1-9.2-5.4c-3.2,3.1-7.5,5.2-11.6,5.2l-92.9.1-1.5-8.5-3.8,8.5H74a23.16,23.16,0,0,1-14.2-2.1A19.45,19.45,0,0,1,49.2,166c-1.1-10.5,3-18.9,11.6-24.2,8.3-5.1,17.1-6.2,26.2-3l1.7.6.6-1.4h17.4l1.3,7.8,2.6-7.9h79.5"/><path class="cls-2" d="M295.4,166.6h-6.2V154H298c4.7,0,7,1.9,7,6,0,5-2.5,6.6-9.6,6.6m43.3-17.9h-7.2l-.2.4L323.2,164l-8.7-14.9-.2-.3h-7.7l.6,1,1.5,2.4c-2.4-2.3-6-3.5-10.7-3.5H282.5v19.4l-11.5-19-.2-.3h-5.9l-.2.3-13.1,22-.6,1h16.5v-5.2h-6.7l6.7-12.1,9.5,16.9.2.3h19.3c10.1,0,15.3-4,15.3-11.8a13.8,13.8,0,0,0-.5-3.7l9.2,15.2.2.3h4.5l.2-.3,12.7-22,.6-1"/><polyline class="cls-2" points="383.4 148.7 382.7 148.7 382.7 162.6 365.2 148.9 365 148.7 360.4 148.7 360.4 168.1 348.9 149.1 348.7 148.7 342.8 148.7 342.6 149.1 329.5 171 328.9 172.1 335.9 172.1 335.9 172.1 345.5 172.1 345.5 166.9 338.8 166.9 345.5 154.8 355 171.7 355.2 172.1 362.8 172.1 362.8 172.1 366.6 172.1 366.6 158 384.1 171.9 384.3 172.1 388.9 172.1 388.9 148.7 383.4 148.7"/><path class="cls-2" d="M411.1,148.7H397.4c-4.8,0-6.4,1.5-6.4,5.9v11.6c0,4.4,1.6,5.9,6.4,5.9h13.7c4.8,0,6.4-1.5,6.4-5.9v-3.3h-6.8v3.6H397.6V154.2h13.1v3.2h6.8v-2.8c0-4.5-1.6-5.9-6.4-5.9"/><polyline class="cls-2" points="444.2 166.6 426.4 166.6 426.4 162.5 437.1 162.5 437.1 157.4 426.4 157.4 426.4 154 444.6 154 444.6 148.7 419.7 148.7 419.7 172.1 444.9 172.1 444.9 166.6 444.2 166.6"/><path class="cls-2" d="M92.8,160.6l2.9-6.5,1.3,6.5H92.8m39.9-16.9L124.9,162l-3.3-18.3h-6.8l-8.8,27-4.5-27H93.1l-12.8,29,1.9-12.1H69.5l-1,6.2h5.3l-.6,3.3c-3,1.3-8.2.9-10.4-3.1-1.4-2.5-2.7-8.1,3.2-13.2,4.8-4.2,13.1-4.9,17.9-2.7,0,0,.6-3.5,1.1-6.8a24,24,0,0,0-21.2,2.4c-6.5,4-9.6,10.2-8.8,18.6,1,9.7,13.5,15.8,24.2,9.7a.31.31,0,0,1,.2-.1l-1,2.3h7.2l4.5-10H98l1.7,10h11.6l5.9-18.6,3.8,18.6h4.6l8.9-20.6.9,20.6h6.8l-1.3-33.5h-8.2"/><polyline class="cls-2" points="142.9 177.1 162 177.1 163.1 169.9 151.1 169.9 152.1 164 162.5 164 163.6 156.8 153.1 156.8 154 150.9 166 150.9 167.1 143.7 148.2 143.7 142.9 177.1"/><polyline class="cls-2" points="236.1 154.6 231.9 143.7 224 143.7 232.1 161.3 229.6 177.1 236.5 177.1 238.6 163.1 250.9 143.7 242.9 143.7 236.1 154.6"/><path class="cls-2" d="M220.1,163.6c-1.8,5.5-6.3,8.7-9.9,7.1s-5-7.4-3.2-13,6.3-8.7,9.9-7.1,5.1,7.5,3.2,13M217.5,144c-7.6-1.7-15.5,4.3-17.6,13.5s2.3,18.1,9.9,19.9,15.5-4.3,17.6-13.5-2.4-18.1-9.9-19.9"/><path class="cls-2" d="M187.1,157.1h-4.8l1.1-6.2h4.4c4.9,0,4,6.2-.7,6.2m-.8,13.5h-6l1.1-6.6h5.7c5.4-.1,5.3,6.6-.8,6.6m4-26.7c-3.7-.1-12.8,0-12.8,0h.1L172.3,177h15.4c6.3,0,15.6-9.3,7.2-17,8.6-9,0-16-4.6-16.1"/><path class="cls-2" d="M242.3,173.9v-1.3h1.1c.5,0,.9.1.9.6,0,.8-.8.7-1.3.7h-.7m1.3.4c.7,0,1.2-.3,1.2-1.1a1,1,0,0,0-.4-.8,1.49,1.49,0,0,0-.9-.2h-1.7v3.9h.5v-1.7h.8l1.1,1.7h.6l-1.2-1.8m-.4,3.3a3.48,3.48,0,0,0,3.5-3.5,3.4,3.4,0,0,0-3.5-3.4,3.46,3.46,0,0,0-3.5,3.4,3.42,3.42,0,0,0,3.5,3.5m0-.6a2.84,2.84,0,0,1-2.9-2.9,2.9,2.9,0,1,1,2.9,2.9"/></svg>