<svg id="Layer_1" data-name="Layer 1" xmlns="http://www.w3.org/2000/svg" xmlns:xlink="http://www.w3.org/1999/xlink" viewBox="0 0 493.16 366.52"><defs><style>.cls-1{fill:url(#linear-gradient);}.cls-2{fill:url(#linear-gradient-2);}</style><linearGradient id="linear-gradient" x1="199.16" y1="57.11" x2="476.68" y2="334.63" gradientUnits="userSpaceOnUse"><stop offset="0" stop-color="#8154ef" stop-opacity="0.3"/><stop offset="1" stop-color="#49c5b6" stop-opacity="0.5"/></linearGradient><linearGradient id="linear-gradient-2" x1="99.18" y1="138.57" x2="518.23" y2="380.51" gradientUnits="userSpaceOnUse"><stop offset="0" stop-color="#f6b4b4" stop-opacity="0.4"/><stop offset="1" stop-color="#f15e5e" stop-opacity="0.5"/></linearGradient></defs><path class="cls-1" d="M530.86,159.47c12.33,84.14-102.18,296.09-156.9,199.2-88.21-156.19-152.11-85.63-233.4-99.1C-61,226.19,129.49,138.83,297.45,60.37,490.51-29.81,511.75,29,530.86,159.47Z" transform="translate(-53.77 -16.99)"/><path class="cls-2" d="M128.46,291C115,229,92.19-67.84,278,51c151.12,96.65,220.46,154.85,253.29,230.44,52.12,120-31-2.76-175.44,24.5C146.47,345.45,156.35,419.88,128.46,291Z" transform="translate(-53.77 -16.99)"/></svg>