<svg id="Layer_1" data-name="Layer 1" xmlns="http://www.w3.org/2000/svg" xmlns:xlink="http://www.w3.org/1999/xlink" viewBox="0 0 433.65 364.52"><defs><style>.cls-1{fill:url(#linear-gradient);}.cls-2{fill:url(#linear-gradient-2);}</style><linearGradient id="linear-gradient" x1="83.29" y1="200.26" x2="501.78" y2="200.26" gradientUnits="userSpaceOnUse"><stop offset="0.03" stop-color="#232323" stop-opacity="0.1"/><stop offset="1" stop-opacity="0.5"/></linearGradient><linearGradient id="linear-gradient-2" x1="-117.69" y1="224.61" x2="303.03" y2="224.61" gradientTransform="translate(359.04 488.93) rotate(-166.98)" gradientUnits="userSpaceOnUse"><stop offset="0.03" stop-color="#232323" stop-opacity="0.2"/><stop offset="1" stop-opacity="0.5"/></linearGradient></defs><path class="cls-1" d="M500.86,158.47c12.33,84.14-102.18,296.09-156.9,199.2-88.21-156.19-184.39-32.85-233.4-99.1-77.83-105.18,22.28-140.1,156.89-199.2C462.56-26.3,481.75,28,500.86,158.47Z" transform="translate(-83.29 -18)"/><path class="cls-2" d="M98.46,290C87.6,236.8,165.13,200.74,296.21,131.3c158.51-84,172.25,73.55,205.08,149.14,52.12,120-31-2.76-175.44,24.5C116.47,344.45,124.83,419.2,98.46,290Z" transform="translate(-83.29 -18)"/></svg>