<svg id="c" xmlns="http://www.w3.org/2000/svg" viewBox="0 0 500 300"><defs><style>.cls-1{fill:#a8b9cc;}.cls-2{fill:#00599c;}.cls-3{fill:#004482;}.cls-4{fill:#659ad2;}.cls-5{fill:#fff;}.cls-6{fill:#1c1c1c;}</style></defs><path id="path3" class="cls-1" d="M115.64,76.69S113.9,60.47,97.81,60,73.45,72.19,73.45,90.2s9.14,32.44,24.79,32.44,17.4-18,17.4-18l30,1.8s1.77,16.27-10.79,28.69-28,14.44-38.73,14.36-25.69.17-40.12-14.61S39.12,105.72,39.12,91.61s2.74-32.79,19.9-47C70.68,35,82.5,31.48,94.33,31.48,143.68,31.48,147,77,147,77Z"/><path class="cls-2" d="M470.23,238.59a12.41,12.41,0,0,0,1.77-6V166.12a12.37,12.37,0,0,0-1.77-5.94l-67.9,39.2Z"/><path class="cls-3" d="M408.36,276.35,466,243.09a12.34,12.34,0,0,0,4.26-4.5l-67.9-39.21-67.91,39.21a12.36,12.36,0,0,0,4.27,4.5l57.6,33.26A13.37,13.37,0,0,0,408.36,276.35Z"/><path class="cls-4" d="M470.23,160.18a12.45,12.45,0,0,0-4.26-4.51l-57.61-33.26a13.43,13.43,0,0,0-12.07,0l-57.6,33.26a13.4,13.4,0,0,0-6,10.45v66.52a12.41,12.41,0,0,0,1.77,6l67.91-39.21Z"/><path class="cls-5" d="M402.33,245.83a46.45,46.45,0,1,1,40.22-69.69l-20.1,11.64a23.23,23.23,0,1,0,0,23.21l20.1,11.63A46.6,46.6,0,0,1,402.33,245.83Z"/><polygon class="cls-5" points="448.77 196.8 443.61 196.8 443.61 191.64 438.45 191.64 438.45 196.8 433.29 196.8 433.29 201.96 438.45 201.96 438.45 207.13 443.61 207.13 443.61 201.96 448.77 201.96 448.77 196.8"/><polygon class="cls-5" points="468.13 196.8 462.97 196.8 462.97 191.64 457.81 191.64 457.81 196.8 452.65 196.8 452.65 201.96 457.81 201.96 457.81 207.13 462.97 207.13 462.97 201.96 468.13 201.96 468.13 196.8"/><path class="cls-6" d="M174.63,175.4q-4.47-3.74-4.47-11.36,0-7.24,4.1-10.87t12.37-3.63h13.88l.66,7.72H186.68c-2.51,0-4.39.56-5.62,1.67A6.51,6.51,0,0,0,179.2,164a6.32,6.32,0,0,0,2.47,5.5c1.64,1.2,4.15,1.79,7.5,1.79q5.51,0,8.21-1.18a3.86,3.86,0,0,0,2.71-3.67l1,6.87A11.17,11.17,0,0,1,198,176.6a13.76,13.76,0,0,1-4.31,1.91,22.05,22.05,0,0,1-5.5.63Q179.1,179.14,174.63,175.4Zm25.46-27.93q0-4.8-2.57-7.45c-1.71-1.78-4.13-2.66-7.27-2.66a18.51,18.51,0,0,0-5.71.89,17.06,17.06,0,0,0-5,2.5l-7-4.81a18.39,18.39,0,0,1,7.32-5.2A26.55,26.55,0,0,1,190,128.89a23.19,23.19,0,0,1,10.4,2.14,14.9,14.9,0,0,1,6.59,6.21,20,20,0,0,1,2.26,9.81v31.39h-9.13Z"/><path class="cls-6" d="M223.81,129.59h9.59v48.85h-9.59Zm29.64,19.25q0-5.18-2.68-8a9.91,9.91,0,0,0-7.53-2.83c-3.14,0-5.56.84-7.27,2.5a9.33,9.33,0,0,0-2.57,7l-1-9.41a17.36,17.36,0,0,1,5.9-6.82,14.36,14.36,0,0,1,8.07-2.4q8,0,12.31,5.2t4.35,14.7v29.65h-9.6Z"/><path class="cls-6" d="M284,177a14.64,14.64,0,0,1-5.77-6.8,26.35,26.35,0,0,1-2-10.72V148.65a27.09,27.09,0,0,1,1.93-10.78,14.55,14.55,0,0,1,5.62-6.79,16.22,16.22,0,0,1,8.87-2.33,14.68,14.68,0,0,1,7.93,2.25,16.74,16.74,0,0,1,5.81,6.36l-1,10a11.57,11.57,0,0,0-1.13-5.31,7.67,7.67,0,0,0-3.27-3.37,10.83,10.83,0,0,0-5.2-1.15,9.3,9.3,0,0,0-7.36,3q-2.61,3-2.61,8.33v10.64q0,5.31,2.61,8.21a9.39,9.39,0,0,0,7.36,2.89,10.49,10.49,0,0,0,5.2-1.2,7.88,7.88,0,0,0,3.27-3.46,12,12,0,0,0,1.13-5.41l.66,10.31a13.86,13.86,0,0,1-4.78,6.07,13.37,13.37,0,0,1-8.16,2.44A17,17,0,0,1,284,177ZM305.4,110H315v68.42h-9.6Z"/></svg>