<svg id="css" xmlns="http://www.w3.org/2000/svg" viewBox="0 0 500 300"><defs><style>.cls-1{fill:#cd6799;}.cls-2{fill:#264de4;}.cls-3{fill:#2965f1;}.cls-4{fill:#ebebeb;}.cls-5{fill:#fff;}.cls-6{fill:#1c1c1c;}</style></defs><path class="cls-1" d="M234.61,120a52.81,52.81,0,0,0-23.07,5.35c-2.38-4.7-4.75-8.89-5.17-12-.46-3.58-1-5.77-.46-10.05s3.07-10.37,3-10.84-.56-2.65-5.68-2.7-9.53,1-10.05,2.33a57.87,57.87,0,0,0-2.14,7.58c-.88,4.66-10.23,21.27-15.58,30-1.72-3.4-3.21-6.38-3.54-8.75-.46-3.58-1-5.77-.46-10s3.07-10.37,3-10.84-.56-2.65-5.67-2.7-9.54,1-10.05,2.33-1.07,4.51-2.14,7.58-13.5,30.8-16.75,38c-1.68,3.67-3.12,6.6-4.15,8.6h0a1.88,1.88,0,0,1-.18.38c-.89,1.72-1.4,2.65-1.4,2.65v.05c-.69,1.25-1.44,2.41-1.81,2.41s-.79-3.34.09-7.9c1.86-9.64,6.28-24.62,6.24-25.13,0-.28.83-2.88-2.89-4.23s-4.93.88-5.26.88-.55.79-.55.79,4-16.84-7.73-16.84c-7.35,0-17.49,8-22.52,15.31-3.16,1.72-9.91,5.39-17.12,9.35-2.74,1.53-5.58,3.07-8.23,4.51-.19-.18-.38-.42-.56-.6-14.24-15.22-40.57-26-39.46-46.39.42-7.44,3-27,50.58-50.71,39.17-19.31,70.35-14,75.74-2.1,7.73,16.94-16.7,48.39-57.18,53C88.06,91,80,85,77.91,82.77s-2.46-2.46-3.25-2c-1.31.7-.47,2.79,0,4,1.21,3.17,6.18,8.75,14.61,11.5,7.44,2.41,25.54,3.76,47.45-4.7,24.52-9.5,43.69-35.88,38.06-58-5.63-22.42-42.85-29.82-78.07-17.3-20.94,7.44-43.64,19.17-60,34.43C17.34,68.86,14.26,84.63,15.52,91.24,20,114.69,52.37,130,65.3,141.26c-.65.37-1.25.69-1.76,1-6.47,3.21-31.13,16.1-37.27,29.73-7,15.45,1.11,26.52,6.47,28,16.61,4.61,33.68-3.67,42.85-17.35s8-31.45,3.81-39.6a1.06,1.06,0,0,0-.18-.27c1.67-1,3.39-2,5.07-3,3.3-2,6.56-3.77,9.35-5.26a61.11,61.11,0,0,0-3.3,16.94c-.7,8.74,2.88,20.09,7.58,24.56a8.35,8.35,0,0,0,6.14,2c5.49,0,8-4.56,10.7-9.95,3.35-6.61,6.38-14.29,6.38-14.29s-3.77,20.75,6.46,20.75c3.72,0,7.49-4.84,9.17-7.3v0l.28-.46.6-1v-.09c1.49-2.61,4.84-8.52,9.82-18.33,6.42-12.66,12.61-28.48,12.61-28.48a81.56,81.56,0,0,0,2.46,10.29c1.12,3.76,3.45,7.91,5.31,11.91-1.49,2.09-2.42,3.25-2.42,3.25l0,0c-1.21,1.58-2.52,3.3-4,5-5.07,6-11.12,13-12,15-1,2.37-.74,4.09,1.12,5.49,1.35,1,3.77,1.16,6.23,1a28.54,28.54,0,0,0,9.36-2.14,31.38,31.38,0,0,0,8-4.23A18,18,0,0,0,182,148.65a32.16,32.16,0,0,0-2.93-11.21c.46-.65.88-1.3,1.35-1.95a213.7,213.7,0,0,0,13.95-24.1,80.91,80.91,0,0,0,2.47,10.28c.93,3.26,2.84,6.79,4.51,10.23-7.39,6-11.95,13-13.58,17.54-2.93,8.47-.65,12.29,3.67,13.17,2,.42,4.75-.51,6.8-1.39a31,31,0,0,0,8.6-4.42c5-3.68,9.77-8.8,9.49-15.73a29.37,29.37,0,0,0-2.14-9.31c6.29-2.6,14.38-4,24.71-2.83,22.15,2.6,26.52,16.42,25.68,22.24s-5.49,9-7,10-2.05,1.31-1.91,2c.19,1,.93,1,2.23.79,1.82-.32,11.63-4.69,12.05-15.4C270.67,134.84,257.64,119.9,234.61,120ZM63.77,177.64c-7.35,8-17.59,11-22,8.47-4.74-2.75-2.88-14.57,6.14-23a117.23,117.23,0,0,1,17.26-12.89c1.07-.65,2.66-1.58,4.56-2.75l.52-.27h0l1.11-.7C74.66,158.56,71.49,169.22,63.77,177.64Zm53.5-36.38c-2.56,6.23-7.91,22.19-11.16,21.31-2.79-.75-4.52-12.85-.56-24.8,2-6,6.23-13.17,8.7-16,4-4.47,8.42-6,9.49-4.14C125.09,120,118.86,137.35,117.27,141.26Zm44.16,21.12c-1.07.56-2.1.93-2.56.65s.46-.93.46-.93,5.54-6,7.73-8.65c1.25-1.59,2.74-3.45,4.32-5.54v.6C171.38,155.63,164.5,160.43,161.43,162.38Zm34-7.77c-.79-.56-.65-2.42,2-8.24a31,31,0,0,1,7.58-9.77,13.21,13.21,0,0,1,.74,4.28C205.77,149.86,199.35,153.21,195.48,154.61Z"/><g id="layer1"><g id="g3013"><polygon id="polygon2989" class="cls-2" points="475 88.92 461.02 245.51 398.19 262.94 335.52 245.54 321.56 88.92 475 88.92"/><polygon id="polygon2991" class="cls-3" points="449.05 235.54 461 101.72 398.28 101.72 398.28 249.62 449.05 235.54"/><polygon id="polygon2993" class="cls-4" points="353.57 159.81 355.29 179.02 398.28 179.02 398.28 159.81 353.57 159.81"/><polygon id="polygon2995" class="cls-4" points="398.28 120.93 398.21 120.93 350.11 120.93 351.86 140.14 398.28 140.14 398.28 120.93"/><polygon id="polygon2997" class="cls-4" points="398.28 229.69 398.28 209.7 398.19 209.72 376.8 203.95 375.43 188.63 365.04 188.63 356.15 188.63 358.84 218.79 398.19 229.71 398.28 229.69"/><path id="path2999" d="M357.67,46.35h23.27v9.73H367.4v9.73h13.54v9.73H357.67Z"/><path id="path3001" d="M385.59,46.35h23.26v8.46H395.32V56.5h13.53V76H385.59V67.08h13.54V65.39H385.59Z"/><path id="path3003" d="M413.51,46.35h23.26v8.46H423.24V56.5h13.53V76H413.51V67.08H427V65.39H413.51Z"/><polygon id="polygon3005" class="cls-5" points="421.87 179.02 419.64 203.93 398.21 209.72 398.21 229.7 437.59 218.79 437.88 215.54 442.4 164.97 442.86 159.81 446.33 120.93 398.21 120.93 398.21 140.14 425.28 140.14 423.53 159.81 398.21 159.81 398.21 179.02 421.87 179.02"/></g></g><path class="cls-6" d="M164.63,240.4q-4.47-3.74-4.47-11.36,0-7.24,4.1-10.87t12.37-3.63h13.88l.66,7.72H176.68c-2.51,0-4.39.56-5.62,1.67A6.51,6.51,0,0,0,169.2,229a6.32,6.32,0,0,0,2.47,5.5c1.64,1.2,4.15,1.79,7.5,1.79q5.51,0,8.21-1.18a3.86,3.86,0,0,0,2.71-3.67l1,6.87A11.17,11.17,0,0,1,188,241.6a13.76,13.76,0,0,1-4.31,1.91,22.05,22.05,0,0,1-5.5.63Q169.1,244.14,164.63,240.4Zm25.46-27.93q0-4.8-2.57-7.45c-1.71-1.78-4.13-2.66-7.27-2.66a18.51,18.51,0,0,0-5.71.89,17.06,17.06,0,0,0-5,2.5l-7-4.81a18.39,18.39,0,0,1,7.32-5.2A26.55,26.55,0,0,1,180,193.89a23.19,23.19,0,0,1,10.4,2.14,14.9,14.9,0,0,1,6.59,6.21,20,20,0,0,1,2.26,9.81v31.39h-9.13Z"/><path class="cls-6" d="M213.81,194.59h9.59v48.85h-9.59Zm29.64,19.25q0-5.18-2.68-8a9.91,9.91,0,0,0-7.53-2.83c-3.14,0-5.56.84-7.27,2.5a9.33,9.33,0,0,0-2.57,7l-1-9.41a17.36,17.36,0,0,1,5.9-6.82,14.36,14.36,0,0,1,8.07-2.4q8,0,12.31,5.2t4.35,14.7v29.65h-9.6Z"/><path class="cls-6" d="M274,242a14.64,14.64,0,0,1-5.77-6.8,26.35,26.35,0,0,1-2-10.72V213.65a27.09,27.09,0,0,1,1.93-10.78,14.55,14.55,0,0,1,5.62-6.79,16.22,16.22,0,0,1,8.87-2.33,14.68,14.68,0,0,1,7.93,2.25,16.74,16.74,0,0,1,5.81,6.36l-1,10a11.57,11.57,0,0,0-1.13-5.31,7.67,7.67,0,0,0-3.27-3.37,10.83,10.83,0,0,0-5.2-1.15,9.3,9.3,0,0,0-7.36,3q-2.61,3-2.61,8.33v10.64q0,5.31,2.61,8.21a9.39,9.39,0,0,0,7.36,2.89,10.49,10.49,0,0,0,5.2-1.2,7.88,7.88,0,0,0,3.27-3.46,12,12,0,0,0,1.13-5.41l.66,10.31a13.86,13.86,0,0,1-4.78,6.07,13.37,13.37,0,0,1-8.16,2.44A17,17,0,0,1,274,242ZM295.4,175H305v68.42h-9.6Z"/></svg>