<svg id="js" xmlns="http://www.w3.org/2000/svg" viewBox="0 0 500 300"><defs><style>.cls-1{fill:#f7df1e;}</style></defs><rect class="cls-1" width="500" height="300"/><path d="M385.53,227.38c4.76,7.76,10.94,13.46,21.88,13.46,9.19,0,15.06-4.59,15.06-10.94,0-7.6-6-10.29-16.15-14.72l-5.54-2.38c-16-6.81-26.64-15.35-26.64-33.41,0-16.63,12.68-29.29,32.48-29.29,14.1,0,24.24,4.9,31.54,17.75l-17.27,11.09c-3.8-6.82-7.9-9.5-14.27-9.5S396,173.56,396,178.94c0,6.65,4.12,9.35,13.64,13.47l5.54,2.37c18.84,8.08,29.48,16.32,29.48,34.84,0,20-15.68,30.9-36.75,30.9-20.59,0-33.9-9.81-40.41-22.67Zm-78.34,1.92c3.49,6.18,6.65,11.4,14.27,11.4,7.29,0,11.89-2.85,11.89-13.93V151.36h22.17v75.71c0,23-13.46,33.41-33.11,33.41-17.76,0-28-9.19-33.27-20.25Z"/></svg>