<svg id="php" xmlns="http://www.w3.org/2000/svg" viewBox="0 0 500 300"><defs><style>.cls-1{fill:#6082bb;}.cls-2{fill:#fff;}</style></defs><rect id="rect4138" class="cls-1" x="0.17" y="-0.91" width="499.83" height="300.91"/><path id="path3486" class="cls-2" d="M187.11,161.74c5.51,0,9.62-1,12.22-3.06s4.35-5.5,5.28-10.36c.87-4.54.53-7.72-1-9.43s-4.91-2.63-10-2.63h-8.8L180,161.74Zm-28.76,31.4a1.37,1.37,0,0,1-1.06-.51,1.4,1.4,0,0,1-.29-1.15l12.93-67.54a1.36,1.36,0,0,1,1.34-1.12h27.85c8.76,0,15.27,2.41,19.37,7.17s5.38,11.48,3.77,19.89a30.77,30.77,0,0,1-9.51,17.31,27,27,0,0,1-10.14,6.17,45.23,45.23,0,0,1-13.94,1.82H177.39L174.17,192a1.37,1.37,0,0,1-1.34,1.13Z"/><path id="path3494" class="cls-2" d="M256.61,175.18a1.33,1.33,0,0,1-1-.51,1.44,1.44,0,0,1-.29-1.15l5.65-29.88c.53-2.84.4-4.88-.38-5.74-.47-.53-1.9-1.41-6.12-1.41H244.2l-7.09,37.56a1.37,1.37,0,0,1-1.33,1.13H221.59a1.35,1.35,0,0,1-1-.51,1.43,1.43,0,0,1-.28-1.15L233,106a1.36,1.36,0,0,1,1.32-1.13h14.19a1.35,1.35,0,0,1,1,.51,1.39,1.39,0,0,1,.28,1.15l-3.07,16.3h11c8.38,0,14.06,1.52,17.37,4.65s4.43,8.29,3.13,15.16l-5.93,31.42a1.37,1.37,0,0,1-1.33,1.13Z"/><path id="path3502" class="cls-2" d="M304.4,161.74c5.71,0,10-1,12.68-3.06s4.51-5.5,5.48-10.36c.9-4.54.56-7.72-1-9.43s-5.1-2.63-10.37-2.63H302L297,161.74Zm-29.88,31.4a1.43,1.43,0,0,1-1.09-.51,1.37,1.37,0,0,1-.3-1.15l13.42-67.54a1.41,1.41,0,0,1,1.39-1.12h28.92c9.09,0,15.86,2.41,20.11,7.17s5.6,11.48,3.92,19.89a31.47,31.47,0,0,1-3.47,9.46,32.17,32.17,0,0,1-6.4,7.85,28.35,28.35,0,0,1-10.54,6.17A48.64,48.64,0,0,1,306,175.18H294.3L291,192a1.43,1.43,0,0,1-1.4,1.13Z"/></svg>