<svg id="python" xmlns="http://www.w3.org/2000/svg" xmlns:xlink="http://www.w3.org/1999/xlink" viewBox="0 0 500 300"><defs><style>.cls-1{fill:#1c1c1c;}.cls-2{fill:url(#linear-gradient);}.cls-3{fill:url(#linear-gradient-2);}</style><linearGradient id="linear-gradient" x1="231.17" y1="148.61" x2="308.26" y2="71.27" gradientTransform="matrix(1, 0, 0, -1, -44.94, 234.53)" gradientUnits="userSpaceOnUse"><stop offset="0" stop-color="#387eb8"/><stop offset="1" stop-color="#366994"/></linearGradient><linearGradient id="linear-gradient-2" x1="278.57" y1="99.37" x2="361.37" y2="20.05" gradientTransform="matrix(1, 0, 0, -1, -44.94, 234.53)" gradientUnits="userSpaceOnUse"><stop offset="0" stop-color="#ffe052"/><stop offset="1" stop-color="#ffc331"/></linearGradient></defs><rect class="cls-1" width="500" height="300"/><g id="layer1"><g id="g1894"><path id="path8615" class="cls-2" d="M249,72c-39.57,0-37.1,17.16-37.1,17.16l0,17.78h37.77v5.34H196.94s-25.32-2.87-25.32,37.06,22.1,38.52,22.1,38.52h13.19V169.33s-.71-22.1,21.75-22.1h37.46s21.05.34,21.05-20.34V92.69S290.36,72,249,72ZM228.18,84a6.8,6.8,0,1,1-6.8,6.79A6.78,6.78,0,0,1,228.18,84Z"/><path id="path8620" class="cls-3" d="M250.13,227.09c39.57,0,37.1-17.17,37.1-17.17l0-17.78H249.42V186.8h52.77s25.32,2.88,25.32-37.06-22.1-38.51-22.1-38.51H292.22v18.53s.71,22.1-21.75,22.1H233s-21-.34-21,20.34v34.19S208.77,227.09,250.13,227.09Zm20.82-12a6.8,6.8,0,1,1,6.8-6.79A6.78,6.78,0,0,1,271,215.13Z"/></g></g></svg>